<svg xmlns="http://www.w3.org/2000/svg" viewBox="0 0 385.13 50.13"><defs><style>.cls-1{fill:#fff;}</style></defs><g id="Layer_2" data-name="Layer 2"><g id="Layer_1-2" data-name="Layer 1"><path class="cls-1" d="M15.25,18,12.15,5.83,9.07,18h-4L0,.29H4.22l3.1,12.78L10.69.29h2.94L17,13.07,20.08.29h4.21L19.25,18Z"/><path class="cls-1" d="M34.67,18v-7.8c0-1.77-.93-2.33-2.36-2.33a3.71,3.71,0,0,0-2.92,1.48V18H26V.29h3.4V6.82a5.93,5.93,0,0,1,4.48-2c2.81,0,4.16,1.54,4.16,4V18Z"/><path class="cls-1" d="M49.07,18V16.63A5.24,5.24,0,0,1,45,18.3a4.25,4.25,0,0,1-4.43-4.24c0-3,2.39-4.14,4.43-4.14a5.25,5.25,0,0,1,4.06,1.56V9.87c0-1.3-1.12-2.15-2.81-2.15a5.4,5.4,0,0,0-3.69,1.51L41.25,6.87a8.24,8.24,0,0,1,5.59-2c2.94,0,5.62,1.17,5.62,4.86V18Zm0-3.08V13.31a3.4,3.4,0,0,0-2.71-1.14c-1.32,0-2.41.72-2.41,1.94S45,16,46.36,16A3.36,3.36,0,0,0,49.07,14.9Z"/><path class="cls-1" d="M56.47,14.77V8.12H54.35V5.17h2.12V1.67h3.37v3.5h2.6V8.12h-2.6v5.75c0,.82.42,1.43,1.16,1.43a1.65,1.65,0,0,0,1.17-.4l.72,2.58a4.18,4.18,0,0,1-2.81.82C57.72,18.3,56.47,17.08,56.47,14.77Z"/><path class="cls-1" d="M83.87,18l-1.12-3H75.17l-1.11,3H69.79L76.6.29h4.72L88.14,18ZM79,4.06,76.2,11.67h5.52Z"/><path class="cls-1" d="M88,9.15C88,3.69,92.15,0,97.48,0a8.05,8.05,0,0,1,7.37,4.32l-3.24,1.59a4.78,4.78,0,0,0-4.13-2.57,5.51,5.51,0,0,0-5.57,5.81A5.51,5.51,0,0,0,97.48,15a4.77,4.77,0,0,0,4.13-2.58L104.85,14a8.11,8.11,0,0,1-7.37,4.35C92.15,18.3,88,14.59,88,9.15Z"/><path class="cls-1" d="M111.19,18V3.61H106V.29h14.11V3.61H115V18Z"/><path class="cls-1" d="M122.54,10.9V.29h3.82v10.5a4.15,4.15,0,1,0,8.3,0V.29h3.85V10.9c0,4.38-2.6,7.4-8,7.4S122.54,15.28,122.54,10.9Z"/><path class="cls-1" d="M153.36,18l-1.11-3h-7.59l-1.11,3h-4.27L146.1.29h4.72L157.63,18Zm-4.9-13.92-2.76,7.61h5.51Z"/><path class="cls-1" d="M159.12,18V.29h3.79V14.67h7.48V18Z"/><path class="cls-1" d="M172.78,18V.29h3.79V14.67h7.48V18Z"/><path class="cls-1" d="M188.16,18V10.74L181.37.29h4.3l4.38,7.08L194.42.29h4.27l-6.76,10.45V18Z"/><path class="cls-1" d="M219.27,18V10.53h-8.35V18h-3.76V.29h3.76v7h8.35V.29h3.8V18Z"/><path class="cls-1" d="M234.16,18V16.63a5.24,5.24,0,0,1-4.06,1.67,4.25,4.25,0,0,1-4.43-4.24c0-3,2.39-4.14,4.43-4.14a5.27,5.27,0,0,1,4.06,1.56V9.87c0-1.3-1.12-2.15-2.82-2.15a5.38,5.38,0,0,0-3.68,1.51l-1.33-2.36a8.26,8.26,0,0,1,5.6-2c2.94,0,5.62,1.17,5.62,4.86V18Zm0-3.08V13.31a3.4,3.4,0,0,0-2.71-1.14c-1.33,0-2.41.72-2.41,1.94S230.12,16,231.45,16A3.36,3.36,0,0,0,234.16,14.9Z"/><path class="cls-1" d="M244.24,16.34v6.52h-3.37V5.17h3.37V6.79a4.93,4.93,0,0,1,3.95-1.94c3.29,0,5.67,2.44,5.67,6.71s-2.38,6.74-5.67,6.74A4.94,4.94,0,0,1,244.24,16.34Zm6.15-4.78c0-2.2-1.33-3.71-3.26-3.71a3.72,3.72,0,0,0-2.89,1.46v4.51a3.78,3.78,0,0,0,2.89,1.48C249.06,15.3,250.39,13.79,250.39,11.56Z"/><path class="cls-1" d="M259.7,16.34v6.52h-3.37V5.17h3.37V6.79a4.94,4.94,0,0,1,3.95-1.94c3.29,0,5.68,2.44,5.68,6.71s-2.39,6.74-5.68,6.74A4.94,4.94,0,0,1,259.7,16.34Zm6.15-4.78c0-2.2-1.32-3.71-3.26-3.71a3.72,3.72,0,0,0-2.89,1.46v4.51a3.8,3.8,0,0,0,2.89,1.48C264.53,15.3,265.85,13.79,265.85,11.56Z"/><path class="cls-1" d="M271,11.56a6.54,6.54,0,0,1,6.63-6.71c3.85,0,6.42,2.87,6.42,7v.8H274.5a3.44,3.44,0,0,0,3.69,2.86,5.33,5.33,0,0,0,3.39-1.25l1.51,2.23a8,8,0,0,1-5.27,1.78A6.5,6.5,0,0,1,271,11.56Zm6.63-3.95a3,3,0,0,0-3.13,2.73h6.32A2.94,2.94,0,0,0,277.6,7.61Z"/><path class="cls-1" d="M295.11,18V10.24a2.08,2.08,0,0,0-2.36-2.39,3.76,3.76,0,0,0-2.92,1.48V18h-3.37V5.17h3.37V6.82a6,6,0,0,1,4.48-2c2.84,0,4.19,1.59,4.19,4.09v9Z"/><path class="cls-1" d="M300.71,16.31l1.46-2.44a7.24,7.24,0,0,0,4.42,1.78c1.46,0,2.15-.56,2.15-1.36,0-2.09-7.58-.37-7.58-5.41,0-2.14,1.85-4,5.25-4a8.18,8.18,0,0,1,5.14,1.75L310.2,9a5.5,5.5,0,0,0-3.79-1.48c-1.22,0-2,.53-2,1.24,0,1.88,7.61.29,7.61,5.46,0,2.36-2,4.09-5.56,4.09A8.6,8.6,0,0,1,300.71,16.31Z"/><path class="cls-1" d="M321.37,18V.29h3.77V18Z"/><path class="cls-1" d="M329.33,18V8.12H327.2V5.17h2.13V4.64c0-2.89,1.72-4.61,4.29-4.61A4.43,4.43,0,0,1,337,1.25l-1.27,2a2,2,0,0,0-1.4-.51c-1,0-1.6.61-1.6,1.86v.53h2.6V8.12h-2.6V18Z"/><path class="cls-1" d="M349.06,18V10.74L342.27.29h4.3l4.37,7.08L355.32.29h4.27l-6.76,10.45V18Z"/><path class="cls-1" d="M357,11.56a6.78,6.78,0,0,1,13.56,0,6.78,6.78,0,0,1-13.56,0Zm10,0c0-2-1.16-3.71-3.28-3.71s-3.26,1.72-3.26,3.71,1.16,3.74,3.26,3.74S367.09,13.58,367.09,11.56Z"/><path class="cls-1" d="M381.76,18V16.36a6.06,6.06,0,0,1-4.51,1.94c-2.81,0-4.13-1.54-4.13-4V5.17h3.37v7.77a2.06,2.06,0,0,0,2.36,2.36,3.73,3.73,0,0,0,2.91-1.46V5.17h3.37V18Z"/><path class="cls-1" d="M.88,41c0-5.6,4.24-9.15,9.44-9.15a8.27,8.27,0,0,1,7.29,4l-3.1,1.7a5.1,5.1,0,0,0-4.19-2.31A5.51,5.51,0,0,0,4.75,41a5.51,5.51,0,0,0,5.57,5.81,5.87,5.87,0,0,0,3.74-1.36V43.31H9.39V40h8.43v6.79a9.76,9.76,0,0,1-7.5,3.32C5.12,50.13.88,46.55.88,41Z"/><path class="cls-1" d="M19.92,43.39a6.54,6.54,0,0,1,6.63-6.71c3.84,0,6.42,2.87,6.42,7v.8H23.45a3.42,3.42,0,0,0,3.68,2.86,5.34,5.34,0,0,0,3.4-1.25L32,48.35a8,8,0,0,1-5.28,1.78A6.49,6.49,0,0,1,19.92,43.39Zm6.63-4a3,3,0,0,0-3.13,2.73h6.31A2.93,2.93,0,0,0,26.55,39.44Z"/><path class="cls-1" d="M36.1,46.6V39.94H34V37H36.1V33.5h3.37V37h2.6v2.94h-2.6V45.7c0,.82.42,1.43,1.16,1.43a1.65,1.65,0,0,0,1.17-.4l.72,2.58a4.18,4.18,0,0,1-2.81.82C37.35,50.13,36.1,48.91,36.1,46.6Z"/><path class="cls-1" d="M50.05,47.32l2.07-3a7.77,7.77,0,0,0,5.62,2.42c2.1,0,3.08-.93,3.08-2,0-3.07-10.19-.92-10.19-7.58,0-2.94,2.55-5.38,6.71-5.38a9.82,9.82,0,0,1,6.9,2.46l-2.1,2.81A7.61,7.61,0,0,0,57,35.2c-1.59,0-2.49.69-2.49,1.75,0,2.78,10.15.9,10.15,7.5,0,3.24-2.33,5.68-7.08,5.68A10.21,10.21,0,0,1,50.05,47.32Z"/><path class="cls-1" d="M66.79,33.61a2,2,0,0,1,4,0,2,2,0,1,1-4,0Zm.32,16.2V37h3.36V49.81Z"/><path class="cls-1" d="M73,43.39a6.51,6.51,0,0,1,6.78-6.71A6,6,0,0,1,84.85,39l-2.2,2.07a3.12,3.12,0,0,0-2.71-1.38,3.42,3.42,0,0,0-3.47,3.71,3.44,3.44,0,0,0,3.47,3.74,3.2,3.2,0,0,0,2.71-1.4l2.2,2.06a6,6,0,0,1-5.07,2.34A6.52,6.52,0,0,1,73,43.39Z"/><path class="cls-1" d="M95.35,49.81,92,44.88l-1.54,1.64v3.29H87.05V32.12h3.37V42.7L95.27,37h4.14l-5.07,5.81,5.23,7Z"/><path class="cls-1" d="M107.26,43.39a6.78,6.78,0,0,1,13.56,0,6.78,6.78,0,0,1-13.56,0Zm10,0c0-2-1.16-3.71-3.28-3.71s-3.27,1.72-3.27,3.71,1.17,3.74,3.27,3.74S117.31,45.41,117.31,43.39Z"/><path class="cls-1" d="M123.34,49.81V37h3.37v1.72a5.61,5.61,0,0,1,4.08-2V40a4.51,4.51,0,0,0-.93-.08,4.28,4.28,0,0,0-3.15,1.46v8.46Z"/><path class="cls-1" d="M151.9,49.81V42.36h-8.35v7.45h-3.77V32.12h3.77v7h8.35v-7h3.79V49.81Z"/><path class="cls-1" d="M167.74,49.81V48.19a6.1,6.1,0,0,1-4.51,1.94c-2.81,0-4.14-1.54-4.14-4V37h3.37v7.77a2.06,2.06,0,0,0,2.36,2.36,3.76,3.76,0,0,0,2.92-1.46V37h3.36V49.81Z"/><path class="cls-1" d="M174.45,49.81V37h3.37v1.72a5.63,5.63,0,0,1,4.08-2V40a4.51,4.51,0,0,0-.93-.08,4.28,4.28,0,0,0-3.15,1.46v8.46Z"/><path class="cls-1" d="M184.69,46.6V39.94h-2.12V37h2.12V33.5h3.37V37h2.59v2.94h-2.59V45.7c0,.82.42,1.43,1.16,1.43a1.66,1.66,0,0,0,1.17-.4l.71,2.58a4.14,4.14,0,0,1-2.81.82C185.93,50.13,184.69,48.91,184.69,46.6Z"/><path class="cls-1" d="M199,43.39a6.78,6.78,0,0,1,13.55,0,6.78,6.78,0,0,1-13.55,0Zm10,0c0-2-1.17-3.71-3.29-3.71s-3.26,1.72-3.26,3.71,1.17,3.74,3.26,3.74S209,45.41,209,43.39Z"/><path class="cls-1" d="M223.68,49.81V42.07a2.08,2.08,0,0,0-2.36-2.39,3.74,3.74,0,0,0-2.92,1.48v8.65H215V37h3.37v1.65a6,6,0,0,1,4.48-2c2.84,0,4.19,1.59,4.19,4.09v9Z"/><path class="cls-1" d="M244.9,49.81V48.46a5.24,5.24,0,0,1-4.06,1.67,4.25,4.25,0,0,1-4.43-4.24c0-3,2.39-4.14,4.43-4.14a5.27,5.27,0,0,1,4.06,1.56V41.69c0-1.29-1.12-2.14-2.82-2.14a5.38,5.38,0,0,0-3.68,1.51l-1.33-2.36a8.26,8.26,0,0,1,5.6-2c2.94,0,5.62,1.17,5.62,4.86v8.27Zm0-3.08V45.14A3.4,3.4,0,0,0,242.19,44c-1.33,0-2.41.72-2.41,1.94s1.08,1.91,2.41,1.91A3.36,3.36,0,0,0,244.9,46.73Z"/><path class="cls-1" d="M257.66,41c0-5.46,4.11-9.15,9.44-9.15a8,8,0,0,1,7.37,4.32l-3.24,1.59a4.78,4.78,0,0,0-4.13-2.57A5.51,5.51,0,0,0,261.53,41a5.51,5.51,0,0,0,5.57,5.81,4.77,4.77,0,0,0,4.13-2.58l3.24,1.57a8.11,8.11,0,0,1-7.37,4.35C261.77,50.13,257.66,46.42,257.66,41Z"/><path class="cls-1" d="M276.65,49.81V37H280v1.72a5.61,5.61,0,0,1,4.08-2V40a4.51,4.51,0,0,0-.93-.08A4.28,4.28,0,0,0,280,41.35v8.46Z"/><path class="cls-1" d="M294.84,49.81V48.19a6.06,6.06,0,0,1-4.51,1.94c-2.81,0-4.13-1.54-4.13-4V37h3.36v7.77a2.06,2.06,0,0,0,2.36,2.36,3.75,3.75,0,0,0,2.92-1.46V37h3.37V49.81Z"/><path class="cls-1" d="M301.24,33.61a2,2,0,0,1,4,0,2,2,0,1,1-4,0Zm.31,16.2V37h3.37V49.81Z"/><path class="cls-1" d="M307.15,48.14l1.46-2.44A7.27,7.27,0,0,0,313,47.48c1.46,0,2.15-.56,2.15-1.36,0-2.09-7.59-.37-7.59-5.41,0-2.14,1.86-4,5.25-4A8.23,8.23,0,0,1,318,38.43l-1.36,2.39a5.47,5.47,0,0,0-3.79-1.49c-1.22,0-2,.54-2,1.25,0,1.88,7.61.29,7.61,5.46,0,2.36-2,4.09-5.57,4.09A8.6,8.6,0,0,1,307.15,48.14Z"/><path class="cls-1" d="M320.09,43.39a6.54,6.54,0,0,1,6.63-6.71c3.85,0,6.42,2.87,6.42,7v.8h-9.52a3.44,3.44,0,0,0,3.69,2.86,5.31,5.31,0,0,0,3.39-1.25l1.51,2.23a8,8,0,0,1-5.27,1.78A6.5,6.5,0,0,1,320.09,43.39Zm6.63-4a3,3,0,0,0-3.13,2.73h6.32A2.94,2.94,0,0,0,326.72,39.44Z"/><path class="cls-1" d="M336.62,42c0-3.13,3.9-3.5,3.9-5.33,0-.82-.64-1.51-2.1-1.51a4.14,4.14,0,0,0-3.26,1.64L333,34.43a7.51,7.51,0,0,1,5.81-2.57c3.42,0,5.51,1.72,5.51,4.19,0,3.87-4.42,4.16-4.42,6.39a1.52,1.52,0,0,0,.5,1.11l-2.92.85A3.48,3.48,0,0,1,336.62,42Zm0,5.91a2.15,2.15,0,1,1,2.15,2.15A2.17,2.17,0,0,1,336.62,48Z"/></g></g></svg>